<svg xmlns="http://www.w3.org/2000/svg" role="img" aria-label="FlowTrim public alpha benchmark" viewBox="0 0 980 278">
<rect width="980" height="278" fill="#ffffff"/>
<text x="32" y="42" font-family="Inter, Arial, sans-serif" font-size="26" font-weight="700" fill="#172554">FlowTrim public alpha benchmark</text>
<text x="32" y="70" font-family="Inter, Arial, sans-serif" font-size="14" fill="#475569">Lane-specific wins from sanitized public-safe reports. No global benchmark claim.</text>
<text x="250" y="110" font-family="Inter, Arial, sans-serif" font-size="13" font-weight="700" fill="#172554">estimated tokens saved</text>
<text x="650" y="110" font-family="Inter, Arial, sans-serif" font-size="13" font-weight="700" fill="#172554">code-lens wins</text>
<line x1="32" x2="948" y1="173" y2="173" stroke="#e2e8f0" stroke-width="1"/>
<text x="32" y="145" font-family="Inter, Arial, sans-serif" font-size="14" font-weight="700" fill="#172554">synthetic-heavy</text>
<text x="32" y="165" font-family="Inter, Arial, sans-serif" font-size="12" fill="#475569">14 cases - 3 raw refusals</text>
<rect x="250" y="130" width="300" height="18" rx="4" fill="#e2e8f0"/>
<rect x="250" y="130" width="56" height="18" rx="4" fill="#0f766e"/>
<text x="562" y="145" font-family="Inter, Arial, sans-serif" font-size="13" fill="#172554">528</text>
<rect x="650" y="130" width="210" height="18" rx="4" fill="#e2e8f0"/>
<rect x="650" y="130" width="210" height="18" rx="4" fill="#7c3aed"/>
<text x="872" y="145" font-family="Inter, Arial, sans-serif" font-size="13" fill="#172554">2</text>
<line x1="32" x2="948" y1="227" y2="227" stroke="#e2e8f0" stroke-width="1"/>
<text x="32" y="199" font-family="Inter, Arial, sans-serif" font-size="14" font-weight="700" fill="#172554">public-playground-readonly</text>
<text x="32" y="219" font-family="Inter, Arial, sans-serif" font-size="12" fill="#475569">12 cases - 2 raw refusals</text>
<rect x="250" y="184" width="300" height="18" rx="4" fill="#e2e8f0"/>
<rect x="250" y="184" width="300" height="18" rx="4" fill="#0f766e"/>
<text x="562" y="199" font-family="Inter, Arial, sans-serif" font-size="13" fill="#172554">2826</text>
<rect x="650" y="184" width="210" height="18" rx="4" fill="#e2e8f0"/>
<rect x="650" y="184" width="105" height="18" rx="4" fill="#7c3aed"/>
<text x="872" y="199" font-family="Inter, Arial, sans-serif" font-size="13" fill="#172554">1</text>
</svg>
